<svg xmlns="http://www.w3.org/2000/svg" xml:space="preserve" id="Capa_1" x="0" y="0" style="enable-background:new 0 0 2122 2122" version="1.1" viewBox="0 0 2122 2122"><style>.st2{fill:#f9d855}</style><circle cx="834.108" cy="1069.532" r="164.477" style="fill:#f4e842"/><path d="M1619.721 979.841c-4.151-14.928-10.446-29.25-13.644-44.412-6.957-32.999-3.861-65.034-14.606-97.475-10.679-32.241-27.032-61.074-45.761-89.602-47.057-71.675-114.902-127.422-186.86-174.045-46.163-29.909-94.984-56.774-147.923-71.709-38.263-10.794-78.073-15.181-117.792-16.911-104.564-4.548-212.483 10.054-303.942 60.94-24.604 13.688-47.766 29.851-69.982 47.151-40.64 31.649-78.331 67.293-110.489 107.532-128.004 160.171-156.532 392.184-76.238 580.845a589.66 589.66 0 0 0 76.23 129.911c77.371 99.914 186.841 173.409 306.762 213.252 28.531 9.481 57.861 17.165 87.836 19.469 41.405 3.182 82.83-3.956 123.743-11.065 50.984-8.863 102.421-17.846 150.379-37.286 56.769-23.006 106.681-59.834 155.916-96.272 14.482-10.718 29.025-21.491 41.756-34.236 24.626-24.653 41.585-55.746 58.202-86.372 19.51-35.963 39.023-71.926 58.533-107.89 31.062-57.249 29.021-137.75 33.605-201.608.2-2.804.385-5.615.548-8.429 1.589-27.489 1.092-55.321-6.273-81.788z" style="fill:#fdfbe8"/><path d="M1298.73 659.926c-25.912 10.904-43.03 63.685-56.606 88.221l-59.239 107.056c-21.423 38.716-42.847 77.432-64.268 116.148-3.303 5.971-6.407 12.158-9.445 18.446-6.107 17.951-14.923 35.222-21.227 52.906-1.518 4.251-2.899 9.296-.322 13.001 3.196 4.597 10.071 3.976 15.532 2.76 1.408-.314 2.811-.633 4.214-.959a13042.714 13042.714 0 0 0 141.994-45.554c61.203-20.027 122.642-40.667 179.104-71.634 26.86-14.731 54.56-34.575 61.688-64.368 12.255-51.234-44.324-114.359-74.479-151.762-25.27-31.348-70.739-83.696-116.946-64.261zM1038.603 1141.788a82.175 82.175 0 0 1-3.469 3.564c-6.224 8.891-12.914 17.505-19.576 25.939a3437.419 3437.419 0 0 1-132.579 157.83c-24.277 27.203-49.118 54.068-70.86 83.391-7.517 10.139-26.582 29.349-23.276 43.24 3.223 13.539 35.425 25.758 46.689 31.688 40.64 21.388 117.526 60.37 165.08 52.136 23.508-4.224 20.263-12.56 46.241-2.899a5344.91 5344.91 0 0 0 16.573-346.989c.183-12.085 1.876-25.111 3.542-38.261-1.42-12.567-2.838-25.135-4.26-37.702.412 3.632-20.84 24.47-24.105 28.063zM1296.966 1406.146a3018.462 3018.462 0 0 0-194.239-282.882c-5.079-4.037-10.107-8.019-14.911-12.02-.987-.821-2.044-1.676-3.313-1.868-3.581-.543-5.537 3.99-6.185 7.554-1.603 8.855-3.313 18.097-4.694 27.466l20.806 241.399c1.995 23.118 3.988 46.234 5.978 69.352 1.605 18.611-2.575 57.066 7.23 73.007 14.365 23.347 59.31 4.107 82.599-2.368 30.709-8.541 70.331-20.584 95.826-40.379 15.303-11.883 26.521-30.977 23.622-50.138-1.598-10.546-7.189-20-12.719-29.123zM1456.726 1246.352c-111.431-36.73-219.996-82.136-324.416-135.636a319.13 319.13 0 0 0-20.199-3.598c-1.16-.168-2.506-.273-3.342.55-1.247 1.23-.341 3.323.614 4.794 4.811 7.408 9.637 14.64 14.582 21.756a802.863 802.863 0 0 1 62.374 74.786c52.346 71.14 93.181 151.188 154.077 215.16 46.495 48.755 132.147-111.911 138.708-144.196 1.303-6.417 2.192-13.369-.646-19.269-3.871-8.057-13.262-11.548-21.752-14.347zM1152.045 1048.188c-7.467 5.754-16.241 9.669-24.597 14.012-11.941 6.212-17.035 13.356-24.653 24.521-.519.762-1.052 1.559-1.206 2.47-.506 3.043 3.106 4.95 6.039 5.898a327.998 327.998 0 0 1 28.906 10.877c29.539 8.933 60.47 16.034 84.974 24.682l164.481 58.063c31.108 10.979 110.479 57.125 132.366 27.059 25.401-34.889 25.018-113.909 25.018-155.109 0-29.225 6.49-131.388-39.471-119.672a3988.012 3988.012 0 0 0-350.619 106.759l-1.238.44zM1042.43 1119.086c5.871-9.72 12.67-22.572 6.716-26.073-3.703-2.18-11.781-.991-19.242.465 3.63.075 7.259.149 10.891.222a2172.124 2172.124 0 0 1-388.72 16.112c-30.424-1.469-69.583-.77-68.655 35.079.736 28.328 17.403 65.748 27.722 92.04 14.687 37.427 34.679 70.952 56.74 104.367 16.129 24.431 30.463 68.372 65.98 68.879 18.305.263 33.561-13.201 46.811-25.837 52.543-50.094 105.083-100.191 157.624-150.288 37.449-35.71 75.523-72.255 104.133-114.966zM1209.659 766.629c15.164-30.743 66.643-98.976 55.135-133.302-10.468-31.235-57.88-33.632-84.25-40.367-39.123-9.997-79.512-15.013-119.882-15.013-27.018 0-58.241.646-70.657 29.44-8.112 18.808-5.946 40.265-3.43 60.594a3096.315 3096.315 0 0 0 65.856 357.9c1.939 3.549 4.083 6.982 6.485 10.263 2.695 3.678 6.733 7.5 11.157 6.399 2.734-.682 4.612-3.057 6.18-5.442l133.406-270.472zM739.595 808.193c80.801 75.97 167.207 145.665 255.272 213.148a479.795 479.795 0 0 0 50.969 27.732c1.671.782 3.786 1.513 5.223.356 1.159-.933 1.255-2.646 1.169-4.131-1.06-18.733-13.813-36.916-14.877-56.078-35.734-110.087-66.923-221.718-85.408-335.883-2.161-13.332-4.316-27.152-11.691-38.465-25.464-39.042-109.731 20.002-138.413 38.253-33.25 21.159-111.548 65.984-93.249 115.073 5.948 15.953 18.601 28.331 31.005 39.995z" class="st2"/><path d="M1005.734 1092.987c6.168-1.912 12.258-4.132 18.263-6.733 14.499-6.276 29.578-14.546 11.043-28.102a302.15 302.15 0 0 1-15.615-12.244 2132.68 2132.68 0 0 1-253.189-179.833c-29.471-24.35-58.818-49.833-93.704-65.475-62.572-28.056-96.735 225.279-98.708 260.249-.426 7.532-.119 16.389 6.015 20.784 3.732 2.672 8.635 2.865 13.225 2.959l412.67 8.395z" class="st2"/></svg>